<?xml version="1.0" encoding="utf-8"?>
<!-- Generator: Adobe Illustrator 17.0.0, SVG Export Plug-In . SVG Version: 6.00 Build 0)  -->
<!DOCTYPE svg PUBLIC "-//W3C//DTD SVG 1.1//EN" "http://www.w3.org/Graphics/SVG/1.1/DTD/svg11.dtd">
<svg version="1.1" id="Слой_1" xmlns="http://www.w3.org/2000/svg" xmlns:xlink="http://www.w3.org/1999/xlink" x="0px" y="0px"
	 width="135px" height="135px" viewBox="0 0 135 135" enable-background="new 0 0 135 135" xml:space="preserve">
<g>
	<g>
		<g>
			<path fill="#91824F" d="M60.454,3.271v9.966c0,1.074,0.339,1.722,1.016,1.945c0.379,0.129,0.912,0.193,1.599,0.193v1.031h-6.388
				v-1.031h0.156c0.687,0,1.173-0.108,1.463-0.323c0.365-0.248,0.544-0.695,0.544-1.338V1.609c-0.56-0.386-1.265-0.58-2.113-0.58V0
				h5.434l10.769,11.24v-7.97c0-1.194-0.302-1.885-0.904-2.073c-0.351-0.113-0.888-0.169-1.609-0.169h-0.257V0h6.797v1.029h-0.255
				c-0.688,0-1.178,0.059-1.467,0.182c-0.464,0.196-0.7,0.582-0.7,1.157v14.113h-1.453L60.454,3.271z"/>
		</g>
	</g>
</g>
<g>
	<g>
		<g>
			<path fill="#91824F" d="M61.465,133.944l-0.657-4.8h1.031c0.867,2.635,2.369,3.952,4.506,3.952c1.203,0,2.092-0.421,2.666-1.265
				c0.257-0.384,0.386-0.82,0.386-1.31c0-0.911-0.49-1.734-1.468-2.471c-0.353-0.268-1.237-0.772-2.664-1.521
				c-1.401-0.721-2.388-1.361-2.963-1.919c-0.909-0.876-1.364-1.913-1.364-3.118c0-0.977,0.304-1.823,0.918-2.535
				c0.563-0.671,1.324-1.157,2.287-1.458c0.653-0.207,1.373-0.308,2.153-0.308c0.864,0,1.642,0.092,2.33,0.271
				c1.057,0.283,1.615,0.424,1.675,0.424c0.196,0,0.389-0.097,0.577-0.296h0.554l0.502,4.277h-1.057
				c-0.273-1.039-0.789-1.88-1.547-2.525c-0.787-0.678-1.708-1.017-2.756-1.017c-0.634,0-1.194,0.141-1.682,0.424
				c-0.596,0.344-0.89,0.812-0.89,1.402c0,0.758,0.478,1.453,1.428,2.087c0.798,0.431,1.601,0.859,2.409,1.29
				c1.545,0.85,2.709,1.665,3.491,2.445c1.001,1.003,1.507,2.167,1.507,3.49c0,1.898-0.938,3.316-2.812,4.251
				c-0.874,0.438-1.814,0.657-2.817,0.657c-0.619,0-1.472-0.143-2.558-0.427c-1.084-0.282-1.736-0.424-1.948-0.424
				c-0.25,0-0.436,0.143-0.558,0.424H61.465z"/>
		</g>
	</g>
</g>
<g>
	<g>
		<g>
			<path fill="#91824F" d="M9.132,77.043L2.694,63.509c-0.32-0.662-0.502-1.041-0.556-1.133c-0.267-0.448-0.544-0.74-0.829-0.876
				c-0.29-0.137-0.65-0.207-1.09-0.207H0v-1.031h6.995v1.031c-0.535,0.05-0.843,0.198-0.931,0.436c-0.085,0.259,0,0.65,0.248,1.173
				l4.878,10.173l1.689-3.45l-3.118-6.543c-0.282-0.591-0.5-0.987-0.657-1.184c-0.32-0.396-0.692-0.598-1.133-0.606v-1.031h11.55
				v1.031c-0.633,0.122-1.098,0.391-1.39,0.812c-0.169,0.257-0.374,0.632-0.617,1.123l-1.919,3.9l2.768,5.617l3.632-9.235
				c0.301-0.754,0.356-1.308,0.165-1.661c-0.189-0.361-0.664-0.546-1.427-0.554v-1.031h5.33v1.031
				c-0.706,0.043-1.257,0.288-1.661,0.735c-0.29,0.309-0.591,0.855-0.9,1.635l-5.332,13.38h-1.714l-2.82-5.808l-2.741,5.808H9.132z
				 M14.798,65.492l1.507-2.989c0.226-0.447,0.287-0.754,0.191-0.924c-0.103-0.19-0.44-0.285-1.015-0.285h-1.416
				c-0.508,0-0.813,0.09-0.916,0.269c-0.103,0.191-0.056,0.487,0.143,0.89L14.798,65.492z"/>
		</g>
	</g>
</g>
<g>
	<g>
		<g>
			<path fill="#91824F" d="M133.248,63.271c-0.109-0.806-0.247-1.357-0.41-1.647c-0.275-0.481-0.744-0.721-1.404-0.721h-5.78v5.936
				h4.275c0.713,0,1.22-0.141,1.524-0.426c0.306-0.283,0.459-0.777,0.459-1.479h1.057v5.253h-1.057c0-0.944-0.283-1.519-0.852-1.727
				c-0.342-0.118-0.853-0.181-1.533-0.181h-3.874v4.753c0,0.481,0.047,0.806,0.143,0.978c0.129,0.257,0.408,0.388,0.836,0.388h4.405
				c0.959,0,1.661-0.215,2.11-0.645c0.401-0.377,0.709-1.06,0.928-2.047h0.991l-0.309,4.145H118.88v-1.029h1.079
				c1.375,0,2.063-0.631,2.063-1.891V62.409c0-0.78-0.196-1.309-0.582-1.581c-0.325-0.233-0.9-0.351-1.724-0.351h-0.255v-1.029
				h14.521l0.275,3.823H133.248z"/>
		</g>
	</g>
</g>
<rect x="11.167" y="65.167" transform="matrix(0.7071 0.7071 -0.7071 0.7071 67.6228 -30.2558)" fill="#91824F" width="118.333" height="2.667"/>
<rect x="11.167" y="65.167" transform="matrix(0.7071 -0.7071 0.7071 0.7071 -26.4224 69.2106)" fill="#91824F" width="118.333" height="2.667"/>
</svg>
