<?xml version="1.0" encoding="utf-8"?>
<!-- Generator: Adobe Illustrator 17.0.0, SVG Export Plug-In . SVG Version: 6.00 Build 0)  -->
<!DOCTYPE svg PUBLIC "-//W3C//DTD SVG 1.1//EN" "http://www.w3.org/Graphics/SVG/1.1/DTD/svg11.dtd">
<svg version="1.1" id="Shape_9_1_" xmlns="http://www.w3.org/2000/svg" xmlns:xlink="http://www.w3.org/1999/xlink" x="0px" y="0px"
	 width="124px" height="47px" viewBox="0 0 124 47" enable-background="new 0 0 124 47" xml:space="preserve">
<g id="Shape_9">
	<g>
		<path fill="#9D8F62" d="M108.354,18.043c1.148-0.91,2.031-1.393,3.534-2.139c-1.613,4.475-7.937,11.773-8.391,16.168
			c-0.123,1.196,0.482,2.154,1.5,2.709c0.818,0.446,0.213-2.602,5.449-8.513c1.972-2.226,4.97-5.367,7.066-7.35
			c-0.378,2.317-0.797,3.996,1.65,5.285c0.185-0.267,0.247-0.322,0.265-0.33c-0.022,0.002-0.062-0.061,0.072-0.63
			c0.186-0.789,0.19-1.478,0.454-2.086c0.793-1.826,1.583-2.674,2.014-3.487c0.341-0.643-1.196-2.382-1.84-2.231
			c-2.225,0.524-6.413,4.98-8.936,8.007c1.518-2.149,5.739-7.505,4.924-8.501c-0.533-0.901-1.889-1.509-2.461-1.391
			c-1.938,0.402-4.119,2.801-5.408,3.983C107.698,18.037,107.939,18.372,108.354,18.043z M47.464,28.609
			c0.121-0.596-1.447-1.075-2.986-1.777c2.046-3.68,11.379-13.738,10.718-16.365C52.475,2.603,31.002,4.068,25.94,5.773
			c-4.359,1.468-5.972,4.086-2.687,6.865c0.435-0.795-0.498-1.373,0.936-2.596C27.96,6.824,44.855,5.409,49.976,7.93
			c-0.614,0.924-18.112,17.347-18.892,17.745C25.29,26.22,10.33,28.194,3.466,33.594C1.244,35.342,0.076,37.481,0,39.435v0.343
			c0.07,2.484,1.959,4.605,5.817,5.124c9.539,1.284,19.312-10.019,27.967-18.239c1.479-0.066,4.998,0.045,6.846,0.327
			c-0.795,2.13-3.624,8.091-2.944,11.672c0.335,1.763,1.438,3.006,3.888,3.045c-1.027-1.237-1.419-2.259-1.429-3.313
			c-0.021-2.283,2.507-8.858,3.875-10.57C45.583,28.343,47.333,29.257,47.464,28.609z M3.519,40.61
			c-1.894-1.719-1.294-3.969,0.813-5.753c5.468-4.629,16.326-7.258,25.473-8.059C26.416,30.266,10.337,44.636,3.519,40.61z
			 M34.872,25.611C35.59,24.676,47.749,13.55,48.887,12.93c-2.36,3.29-4.4,6.641-7.86,13.056
			C39.358,25.749,37.034,25.61,34.872,25.611z M123.895,34.138c-0.542-0.626-7.116,1.844-11.867,2.798
			c-1.754,0.352-3.575,0.684-5.451,0.995c-18.951,3.149-43.467,4.3-60.891,5.092c-1.793,0.081-1.713,0.647-1.026,0.804
			c0.565,0.128,1.58,0.018,2.145,0.027c6.491-0.327,40.084-1.433,60.45-3.587c4.683-0.495,8.657-0.848,11.387-1.565
			C122.043,37.809,124.482,34.814,123.895,34.138z M89.765,32.95c0.732,1.455,1.963,2.58,3.376,2.888
			c3.618,0.788,8.081-5.984,9.616-8.466c0.241-0.39,0.052-0.51-0.321-0.211c-2.18,1.753-6.256,7.411-10.117,6.151
			c-3.194-4.71,8.097-15.007,12.271-16.199c-1.292,4.565-4.513,6.1-7.127,7.579c-0.54,0.305-1.865,0.759-1.038,1.087
			c2.611,1.036,6.829-2.026,8.619-3.62c2.29-2.04,2.567-3.415,1.876-4.763c-0.553-1.079-2.288-3.52-2.984-3.512
			C98.826,13.947,86.69,26.842,89.765,32.95z M72.314,34.341c0.731-0.982,1.291-2.301,2.044-3.364
			c2.464-3.475,9.44-12.705,13.81-13.196c-0.681,5.438-7.603,17.351-13.448,17.597c-1.13-0.193-0.44-2.97-0.888-2.584
			c-3.264,5.545,5.545,7.798,13.522-3.918c1.205-1.77,5.456-8.737,4.457-10.797c-0.562-1.16-1.188-2.186-2.123-2.577
			c-2.475-1.035-8.271,4.587-12.008,9.074c4.575-6.593,9.202-11.525,12.572-15.893c1.58-2.048,2.875-4.222,2.451-5.338
			c-0.41-1.077-0.972-2.564-3.462-3.268c-1.429-0.404-0.175,1.016-1.037,2.851c-0.656,1.397-1.44,3.022-3.497,5.982
			c-2.245,3.231-4.491,6.782-5.457,8.241c-2.004,3.023-7.21,11.307-9.106,15.598C69.19,34.909,71.286,35.721,72.314,34.341z
			 M51.301,21.624c0.147,0.176,1.737-1.117,2.658-1.549c-1.243,2.725-3.946,6.844-5.612,9.638c-1.557,2.611-5.368,7.894-1.314,9.968
			c0.756,0.412-0.249-1.034,3.639-6.278c2.695-3.634,8.251-10.242,10.459-10.902c-1.834,5.59-9.26,13.31-3.335,14.311
			c2.472-2.738,5.798-8.681,8.715-10.508c-0.705,2.061-1.882,4.048-1.951,6.351c-0.083,2.77,1.223,5.339,4.358,4.328
			c-0.433-1.471-1.515-1.265-1.262-3.855c0.238-2.432,4.05-8.465,3.314-9.613c-0.176-0.276-0.98-1.496-2.153-1.572
			c-1.187,0.018-4.087,3.011-6.857,6.852c1.659-2.926,4.617-6.803,4.372-8.094c-0.196-1.037-2.118-2.061-3.103-1.99
			c-2.206,0.159-8.067,6.776-10.181,9.453c1.771-2.934,5.763-7.699,4.982-8.586c-0.573-0.651-1.557-1.952-2.329-1.691
			c-1.263,0.427-2.582,1.407-3.538,2.411C51.773,20.708,51.053,21.328,51.301,21.624z"/>
	</g>
</g>
</svg>
