<?xml version="1.0" encoding="utf-8"?>
<!-- Generator: Adobe Illustrator 17.0.0, SVG Export Plug-In . SVG Version: 6.00 Build 0)  -->
<!DOCTYPE svg PUBLIC "-//W3C//DTD SVG 1.1//EN" "http://www.w3.org/Graphics/SVG/1.1/DTD/svg11.dtd">
<svg version="1.1" id="Слой_1" xmlns="http://www.w3.org/2000/svg" xmlns:xlink="http://www.w3.org/1999/xlink" x="0px" y="0px"
	 width="70.561px" height="66px" viewBox="0 0 70.561 66" enable-background="new 0 0 70.561 66" xml:space="preserve">
<path fill="#91824F" d="M59.54,60.777c-3.84,0-6.966-3.127-6.966-6.967c0-1.399-1.134-2.534-2.535-2.534s-2.535,1.134-2.535,2.534
	c0,3.84-3.126,6.967-6.966,6.967s-6.967-3.127-6.967-6.967c0-1.399-1.134-2.534-2.535-2.534c-1.399,0-2.534,1.134-2.534,2.534
	c0,3.84-3.126,6.967-6.967,6.967c-3.84,0-6.966-3.127-6.966-6.967c0-1.399-1.134-2.534-2.535-2.534
	c-1.399,0-2.534,1.134-2.534,2.534c0,3.84-3.126,6.967-6.967,6.967C1.134,60.777,0,61.912,0,63.311c0,1.4,1.134,2.535,2.534,2.535
	c3.864,0,7.298-1.838,9.501-4.675c2.204,2.838,5.637,4.675,9.501,4.675s7.298-1.838,9.501-4.675
	c2.204,2.838,5.639,4.675,9.501,4.675c3.864,0,7.298-1.838,9.501-4.675c2.204,2.838,5.637,4.675,9.501,4.675
	c1.401,0,2.536-1.134,2.536-2.535C62.072,61.912,60.938,60.777,59.54,60.777z"/>
<path fill="#91824F" d="M68.493,10.947L48.418,7.303V5.401c0-0.008-0.002-0.015-0.002-0.02c0-0.124-0.019-0.246-0.038-0.366
	c-0.006-0.045-0.008-0.094-0.017-0.137C48.34,4.763,48.3,4.656,48.26,4.551c-0.018-0.05-0.027-0.101-0.048-0.148
	c-0.044-0.101-0.101-0.193-0.158-0.288c-0.024-0.046-0.046-0.095-0.076-0.138c-0.063-0.095-0.141-0.178-0.217-0.263
	c-0.032-0.036-0.06-0.076-0.094-0.11c-0.079-0.078-0.168-0.143-0.257-0.211c-0.041-0.031-0.078-0.068-0.12-0.097
	c-0.077-0.051-0.162-0.091-0.245-0.133C46.982,3.127,46.92,3.087,46.85,3.06c-0.065-0.028-0.142-0.044-0.214-0.066
	c-0.09-0.028-0.179-0.06-0.273-0.079c-0.009-0.001-0.019-0.007-0.025-0.008L31.485,0.211c-0.1-0.019-0.198-0.019-0.297-0.024
	c-0.054-0.003-0.102-0.016-0.156-0.016c-0.005,0-0.009,0.001-0.014,0.001c-0.822,0-1.572,0.407-2.038,1.056
	c-0.018,0.021-0.037,0.042-0.054,0.065c-0.055,0.082-0.096,0.173-0.142,0.263c-0.031,0.06-0.067,0.117-0.095,0.18
	c-0.027,0.067-0.044,0.14-0.064,0.21c-0.029,0.093-0.061,0.183-0.08,0.279c-0.002,0.009-0.007,0.018-0.008,0.025
	c-0.015,0.076-0.012,0.15-0.019,0.225c-0.006,0.076-0.021,0.149-0.021,0.227V23.23h-0.708c-1.089,0-2.058,0.698-2.404,1.732
	l-5.681,17.04h-0.569c-1.4,0-2.535,1.134-2.535,2.535v6.313c0,1.399,1.134,2.534,2.535,2.534c1.399,0,2.534-1.134,2.534-2.534v-3.78
	h18.725v3.78c0,1.399,1.134,2.534,2.534,2.534c1.4,0,2.536-1.134,2.536-2.534v-6.313c0-1.4-1.135-2.535-2.536-2.535h-0.569
	l-5.681-17.04c-0.345-1.035-1.315-1.732-2.405-1.732h-0.706v-4.71l9.782-1.776v0.98c0,1.095,0.702,2.021,1.676,2.374
	c0.021,0.009,0.045,0.015,0.067,0.02c0.112,0.037,0.226,0.073,0.347,0.095c0.098,0.019,0.199,0.023,0.302,0.029
	c0.049,0.003,0.095,0.016,0.142,0.016c0.002,0,0.007-0.001,0.011-0.001c0.002,0,0.006,0.001,0.01,0.001
	c0.15,0,0.303-0.013,0.456-0.041L68.491,16.2c1.27-0.23,2.132-1.37,2.066-2.627C70.625,12.319,69.764,11.177,68.493,10.947z
	 M37.021,42.004H25.05l4.569-13.706h2.831L37.021,42.004z M54.592,13.573l-6.174,1.121v-0.75c0.017-0.15,0.015-0.302,0-0.458v-1.035
	L54.592,13.573z M33.57,13.372V5.739l9.783,1.774v4.081L33.57,13.372z"/>
</svg>
