<?xml version="1.0" encoding="utf-8"?>
<!-- Generator: Adobe Illustrator 17.0.0, SVG Export Plug-In . SVG Version: 6.00 Build 0)  -->
<!DOCTYPE svg PUBLIC "-//W3C//DTD SVG 1.1//EN" "http://www.w3.org/Graphics/SVG/1.1/DTD/svg11.dtd">
<svg version="1.1" id="Слой_1" xmlns="http://www.w3.org/2000/svg" xmlns:xlink="http://www.w3.org/1999/xlink" x="0px" y="0px"
	 width="67.143px" height="46px" viewBox="0 0 67.143 46" enable-background="new 0 0 67.143 46" xml:space="preserve">
<path fill="#91824F" d="M64.403,40.386c-4.154,0-7.536-3.38-7.536-7.533c0-1.516-1.227-2.744-2.741-2.744
	c-1.514,0-2.741,1.227-2.741,2.744c0,4.153-3.382,7.533-7.537,7.533s-7.536-3.38-7.536-7.533c0-1.516-1.227-2.744-2.741-2.744
	s-2.741,1.227-2.741,2.744c0,4.153-3.382,7.533-7.537,7.533c-4.155,0-7.536-3.38-7.536-7.533c0-1.516-1.227-2.744-2.741-2.744
	s-2.741,1.227-2.741,2.744c0,4.153-3.382,7.533-7.536,7.533C1.227,40.386,0,41.613,0,43.13c0,1.515,1.227,2.741,2.741,2.741
	c4.179,0,7.894-1.989,10.277-5.058c2.383,3.069,6.098,5.058,10.277,5.058s7.894-1.989,10.277-5.058
	c2.384,3.069,6.098,5.058,10.277,5.058s7.893-1.989,10.277-5.058c2.384,3.069,6.098,5.058,10.277,5.058
	c1.514,0,2.741-1.227,2.741-2.741C67.143,41.613,65.916,40.386,64.403,40.386z"/>
<path fill="#91824F" d="M48,32.396c-1.514,0-2.741-1.229-2.741-2.743c0-6.444-5.244-11.687-11.687-11.687
	c-6.444,0-11.687,5.244-11.687,11.687c0,1.514-1.227,2.743-2.742,2.743c-1.514,0-2.741-1.229-2.741-2.743
	c0-9.466,7.703-17.17,17.168-17.17c9.464,0,17.168,7.703,17.168,17.17C50.74,31.167,49.513,32.396,48,32.396z"/>
<path fill="#91824F" d="M33.572,10.385c-1.514,0-2.741-1.227-2.741-2.741V2.742C30.831,1.227,32.058,0,33.572,0
	c1.514,0,2.741,1.227,2.741,2.742v4.902C36.312,9.158,35.085,10.385,33.572,10.385z"/>
<path fill="#91824F" d="M52.003,18.662c-0.945,0-1.868-0.491-2.376-1.372c-0.756-1.309-0.307-2.986,1.005-3.743l4.247-2.45
	c1.308-0.758,2.987-0.308,3.743,1.005c0.758,1.31,0.307,2.987-1.005,3.743l-4.246,2.45C52.94,18.543,52.469,18.662,52.003,18.662z"
	/>
<path fill="#91824F" d="M16.628,18.662c-0.464,0-0.935-0.118-1.366-0.368l-4.247-2.45c-1.311-0.756-1.761-2.433-1.005-3.743
	c0.755-1.312,2.432-1.762,3.743-1.005L18,13.547c1.311,0.757,1.761,2.434,1.005,3.743C18.497,18.171,17.575,18.662,16.628,18.662z"
	/>
</svg>
