<?xml version="1.0" encoding="utf-8"?>
<!-- Generator: Adobe Illustrator 17.0.0, SVG Export Plug-In . SVG Version: 6.00 Build 0)  -->
<!DOCTYPE svg PUBLIC "-//W3C//DTD SVG 1.1//EN" "http://www.w3.org/Graphics/SVG/1.1/DTD/svg11.dtd">
<svg version="1.1" id="Слой_1" xmlns="http://www.w3.org/2000/svg" xmlns:xlink="http://www.w3.org/1999/xlink" x="0px" y="0px"
	 width="73.028px" height="46px" viewBox="0 0 73.028 46" enable-background="new 0 0 73.028 46" xml:space="preserve">
<g>
	<path fill="#91824F" d="M70.046,39.982c-4.518,0-8.196-3.678-8.196-8.196c0-1.647-1.336-2.982-2.982-2.982
		c-1.646,0-2.981,1.334-2.981,2.982c0,4.518-3.678,8.196-8.197,8.196c-4.518,0-8.196-3.678-8.196-8.196
		c0-1.647-1.336-2.982-2.982-2.982c-1.646,0-2.981,1.334-2.981,2.982c0,4.518-3.678,8.196-8.197,8.196
		c-4.518,0-8.196-3.678-8.196-8.196c0-1.647-1.336-2.982-2.982-2.982s-2.981,1.334-2.981,2.982c0,4.518-3.678,8.196-8.197,8.196
		C1.334,39.982,0,41.316,0,42.963c0,1.646,1.334,2.981,2.981,2.981c4.546,0,8.586-2.161,11.178-5.501
		c2.593,3.34,6.632,5.501,11.178,5.501s8.586-2.161,11.178-5.501c2.593,3.34,6.632,5.501,11.178,5.501s8.586-2.161,11.178-5.501
		c2.593,3.34,6.632,5.501,11.178,5.501c1.646,0,2.982-1.334,2.982-2.981C73.027,41.316,71.692,39.982,70.046,39.982z"/>
	<path fill="#91824F" d="M22.157,29.648c1.646,0,2.981-1.334,2.981-2.981V6.185c10.893,1.424,22.751,10.273,22.751,20.482
		c0,1.646,1.334,2.981,2.981,2.981s2.981-1.334,2.981-2.981c0-7.032-3.766-13.817-10.608-19.107C37.12,2.827,29.24,0,22.158,0
		c-1.646,0-2.981,1.334-2.981,2.981v23.686C19.177,28.313,20.512,29.648,22.157,29.648z"/>
</g>
</svg>
