<?xml version="1.0" encoding="utf-8"?>
<!-- Generator: Adobe Illustrator 17.0.0, SVG Export Plug-In . SVG Version: 6.00 Build 0)  -->
<!DOCTYPE svg PUBLIC "-//W3C//DTD SVG 1.1//EN" "http://www.w3.org/Graphics/SVG/1.1/DTD/svg11.dtd">
<svg version="1.1" id="Слой_1" xmlns="http://www.w3.org/2000/svg" xmlns:xlink="http://www.w3.org/1999/xlink" x="0px" y="0px"
	 width="68.191px" height="70px" viewBox="0 0 68.191 70" enable-background="new 0 0 68.191 70" xml:space="preserve">
<path id="boat_1_" fill="#91824F" d="M64.153,47.833c0,0.08-0.008,0.168-0.024,0.248c-0.016,0.144-0.056,0.28-0.12,0.407
	c-0.04,0.08-0.08,0.16-0.136,0.24c-0.032,0.048-0.072,0.104-0.112,0.152l-8.188,9.386c-0.32,0.367-0.759,0.551-1.206,0.551
	c-0.375,0-0.751-0.128-1.054-0.399c-0.663-0.575-0.727-1.582-0.152-2.253l5.871-6.734H9.122l3.259,7.125
	c0.367,0.799,0.016,1.749-0.783,2.117c-0.216,0.096-0.447,0.144-0.663,0.144c-0.607,0-1.19-0.351-1.454-0.935l-4.25-9.29
	C5.216,48.56,5.2,48.528,5.184,48.496C5.16,48.44,5.136,48.384,5.12,48.328c-0.016-0.048-0.032-0.104-0.04-0.16
	c-0.016-0.048-0.024-0.096-0.024-0.136c-0.008-0.064-0.016-0.128-0.016-0.2c0-0.08,0.008-0.152,0.016-0.232
	c0.008-0.072,0.024-0.144,0.048-0.216c0-0.008,0-0.024,0.008-0.032c0.04-0.128,0.104-0.256,0.176-0.375
	c0.04-0.064,0.08-0.12,0.128-0.184c0.056-0.056,0.104-0.112,0.16-0.16c0.056-0.04,0.112-0.088,0.168-0.128
	c0.136-0.088,0.28-0.16,0.439-0.208c0.056-0.016,0.12-0.032,0.176-0.04c0.088-0.016,0.184-0.024,0.28-0.024h55.917
	c0.08,0,0.168,0.008,0.248,0.024c0.088,0.008,0.168,0.032,0.248,0.056c0.04,0.008,0.072,0.024,0.112,0.04
	c0.08,0.032,0.16,0.072,0.232,0.12c0.072,0.04,0.144,0.096,0.208,0.152c0.048,0.04,0.088,0.08,0.128,0.128
	c0.04,0.04,0.072,0.08,0.104,0.128c0.048,0.056,0.088,0.12,0.12,0.184c0.032,0.048,0.048,0.096,0.072,0.144
	C64.105,47.401,64.153,47.609,64.153,47.833z M26.161,10.696v31.441c0,0.887-0.719,1.598-1.598,1.598H11.783
	c-0.064,0-0.12,0-0.176-0.008l-0.144-0.024c-0.096-0.016-0.192-0.04-0.288-0.08c-0.056-0.024-0.104-0.048-0.152-0.08
	c-0.048-0.024-0.096-0.048-0.136-0.08c-0.248-0.16-0.431-0.391-0.551-0.647c-0.024-0.048-0.048-0.104-0.064-0.16
	c-0.008-0.016-0.016-0.032-0.016-0.048c-0.016-0.032-0.024-0.072-0.032-0.112c-0.04-0.176-0.056-0.351-0.032-0.535
	c0.008-0.048,0.016-0.096,0.024-0.144c0.016-0.096,0.04-0.184,0.08-0.28l0.016-0.04l12.765-31.417
	c0.024-0.056,0.048-0.112,0.08-0.16c0.024-0.048,0.048-0.088,0.08-0.128c0.208-0.312,0.511-0.527,0.855-0.631
	c0.032-0.016,0.072-0.024,0.112-0.032c0.176-0.04,0.351-0.056,0.535-0.032c0.048,0.008,0.096,0.016,0.144,0.024
	c0.048,0.008,0.096,0.016,0.152,0.04c0.056,0.016,0.104,0.032,0.152,0.056c0.312,0.128,0.559,0.351,0.719,0.615
	c0.04,0.056,0.072,0.112,0.096,0.176c0.032,0.072,0.064,0.144,0.088,0.216s0.04,0.136,0.048,0.208
	c0.008,0.064,0.016,0.128,0.016,0.2C26.161,10.648,26.161,10.672,26.161,10.696z M22.966,18.86l-8.811,21.68h8.811V18.86z
	 M25.163,9.202c-0.04-0.016-0.088-0.032-0.128-0.04c0.056,0.016,0.104,0.032,0.152,0.056C25.179,9.21,25.171,9.202,25.163,9.202z
	 M55.757,3.219c-0.911-0.935-2.133-1.454-3.435-1.454c-1.23,0-2.349,0.463-3.195,1.23c-0.855-0.767-1.973-1.23-3.195-1.23
	c-1.31,0-2.524,0.519-3.435,1.454c-0.615,0.631-0.607,1.638,0.024,2.253c0.631,0.623,1.646,0.607,2.261-0.024
	c0.304-0.312,0.711-0.487,1.15-0.487c0.879,0,1.598,0.719,1.598,1.598c0,0.887,0.711,1.598,1.598,1.598
	c0.879,0,1.598-0.711,1.598-1.598c0-0.879,0.711-1.598,1.598-1.598c0.431,0,0.839,0.176,1.142,0.487
	c0.615,0.631,1.63,0.647,2.261,0.032S56.373,3.85,55.757,3.219z M67.74,12.006c-0.911-0.935-2.133-1.454-3.435-1.454
	c-1.23,0-2.349,0.463-3.195,1.23c-0.855-0.767-1.973-1.23-3.195-1.23c-1.31,0-2.524,0.519-3.435,1.454
	c-0.615,0.631-0.607,1.638,0.024,2.253c0.631,0.623,1.646,0.607,2.261-0.024c0.304-0.312,0.711-0.487,1.15-0.487
	c0.879,0,1.598,0.719,1.598,1.598c0,0.887,0.711,1.598,1.598,1.598c0.879,0,1.598-0.711,1.598-1.598
	c0-0.879,0.711-1.598,1.598-1.598c0.431,0,0.839,0.176,1.142,0.487c0.615,0.631,1.63,0.647,2.261,0.032
	C68.339,13.651,68.355,12.637,67.74,12.006z M65.503,66.805c-2.644,0-4.793-2.149-4.793-4.793c0-0.887-0.719-1.598-1.598-1.598
	c-0.887,0-1.598,0.711-1.598,1.598c0,2.644-2.157,4.793-4.793,4.793c-2.644,0-4.793-2.149-4.793-4.793
	c0-0.887-0.719-1.598-1.598-1.598c-0.887,0-1.598,0.711-1.598,1.598c0,2.644-2.157,4.793-4.793,4.793
	c-2.644,0-4.793-2.149-4.793-4.793c0-0.032,0-0.064-0.008-0.096c0-0.032,0-0.064-0.008-0.088c0-0.04-0.008-0.08-0.016-0.112
	c-0.008-0.064-0.024-0.12-0.04-0.176c-0.016-0.056-0.032-0.104-0.056-0.152c-0.04-0.096-0.088-0.184-0.144-0.272
	c-0.064-0.088-0.128-0.168-0.2-0.24c-0.048-0.056-0.104-0.104-0.168-0.144c-0.104-0.08-0.216-0.144-0.336-0.2
	c-0.192-0.08-0.399-0.12-0.623-0.12s-0.431,0.04-0.623,0.12c-0.192,0.088-0.367,0.2-0.511,0.343
	c-0.072,0.072-0.136,0.152-0.192,0.24c-0.048,0.072-0.088,0.144-0.12,0.224c-0.024,0.032-0.04,0.072-0.048,0.112
	c-0.032,0.08-0.056,0.168-0.072,0.264c-0.008,0.032-0.016,0.072-0.016,0.112c-0.008,0.032-0.016,0.056-0.008,0.088
	c-0.008,0.032-0.008,0.064-0.008,0.096c-0.008,2.644-2.157,4.785-4.793,4.785c-2.644,0-4.793-2.149-4.793-4.793
	c0-0.887-0.719-1.598-1.598-1.598c-0.887,0-1.598,0.711-1.598,1.598c0,2.644-2.157,4.793-4.793,4.793
	c-2.644,0-4.793-2.149-4.793-4.793c0-0.887-0.719-1.598-1.598-1.598c-0.887,0-1.598,0.711-1.598,1.598
	c0,2.644-2.157,4.793-4.793,4.793C0.711,66.797,0,67.508,0,68.394c0,0.879,0.711,1.598,1.598,1.598c2.612,0,4.937-1.262,6.391-3.203
	c1.454,1.941,3.778,3.203,6.391,3.203s4.937-1.262,6.391-3.203c1.454,1.941,3.778,3.203,6.391,3.203
	c2.604,0,4.929-1.254,6.391-3.195C35.004,68.738,37.329,70,39.941,70s4.937-1.262,6.391-3.203C47.785,68.738,50.11,70,52.722,70
	s4.937-1.262,6.391-3.203C60.566,68.738,62.891,70,65.503,70c0.879,0,1.598-0.719,1.598-1.598
	C67.101,67.516,66.382,66.805,65.503,66.805z M33.55,60.406c-0.224,0-0.431,0.048-0.623,0.128c0.192-0.08,0.399-0.12,0.623-0.12
	s0.431,0.04,0.623,0.12C33.982,60.454,33.774,60.406,33.55,60.406z M56.061,42.137c0,0.072-0.008,0.136-0.016,0.2
	c-0.008,0.096-0.024,0.184-0.056,0.272c-0.016,0.056-0.032,0.104-0.056,0.152c-0.048,0.112-0.112,0.224-0.184,0.328
	c-0.04,0.056-0.088,0.112-0.136,0.16c-0.048,0.048-0.104,0.096-0.16,0.144c-0.056,0.04-0.112,0.08-0.176,0.12
	c-0.128,0.072-0.264,0.136-0.399,0.168c-0.064,0.016-0.136,0.032-0.208,0.04c-0.064,0.008-0.136,0.016-0.208,0.016H30.499
	c-0.879,0-1.598-0.711-1.598-1.598V1.797c0-0.072,0.008-0.136,0.016-0.2c0.008-0.048,0.016-0.104,0.024-0.152
	c0.008-0.04,0.016-0.08,0.032-0.12c0.064-0.2,0.16-0.383,0.296-0.543c0.032-0.04,0.064-0.08,0.104-0.112
	c0.072-0.08,0.152-0.144,0.248-0.2c0.04-0.032,0.08-0.056,0.12-0.072c0.112-0.072,0.232-0.12,0.359-0.144
	c0.064-0.024,0.128-0.032,0.192-0.04c0.064-0.008,0.136-0.016,0.208-0.016c0.064,0,0.136,0.008,0.2,0.016
	c0.104,0.008,0.208,0.032,0.304,0.064c0.04,0.016,0.088,0.032,0.12,0.048c0.096,0.04,0.184,0.088,0.272,0.152
	c0.192,0.12,0.359,0.296,0.479,0.503l0.032,0.056l23.885,40.204l0.048,0.08c0.08,0.136,0.136,0.272,0.168,0.415
	c0.024,0.064,0.032,0.128,0.04,0.192C56.053,42.001,56.061,42.065,56.061,42.137z M51.66,40.54L32.096,7.612V40.54H51.66z
	 M29.684,0.423c-0.024,0.016-0.048,0.032-0.064,0.048c0.04-0.032,0.08-0.056,0.12-0.072C29.716,0.399,29.7,0.415,29.684,0.423z"/>
</svg>
