<?xml version="1.0" encoding="utf-8"?>
<!-- Generator: Adobe Illustrator 15.1.0, SVG Export Plug-In . SVG Version: 6.00 Build 0)  -->
<!DOCTYPE svg PUBLIC "-//W3C//DTD SVG 1.1//EN" "http://www.w3.org/Graphics/SVG/1.1/DTD/svg11.dtd">
<svg version="1.1" id="Слой_1" xmlns="http://www.w3.org/2000/svg" xmlns:xlink="http://www.w3.org/1999/xlink" x="0px" y="0px"
	 width="70.561px" height="66px" viewBox="0 0 70.561 66" enable-background="new 0 0 70.561 66" xml:space="preserve">
<path fill="#636262" d="M53.406,2.632c-1.043-0.098-2.016-0.151-2.926-0.151c-7.312,0-10.817,3.157-14.833,7.942
	c-4.014-4.785-7.519-7.942-14.822-7.942c-0.92,0-1.893,0.053-2.927,0.151c-6.333,0.616-13.646,6.41-14.53,17.51v3.693
	C4.197,34.458,12.216,47.561,35.647,64c23.441-16.439,31.459-29.542,32.29-40.165v-3.693C67.044,9.042,59.731,3.248,53.406,2.632z
	 M60.872,23.53c-0.856,9.286-9.339,19.949-25.226,31.759C19.762,43.484,11.288,32.816,10.423,23.53v-3.086
	c0.695-7.39,5.235-10.498,8.161-10.783c0.793-0.08,1.543-0.116,2.24-0.116c4.19,0,5.948,1.284,9.419,5.418l5.403,6.445l5.415-6.445
	c3.471-4.134,5.218-5.418,9.419-5.418c0.688,0,1.437,0.036,2.239,0.116c2.917,0.285,7.465,3.394,8.152,10.783V23.53z"/>
</svg>
