<?xml version="1.0" encoding="utf-8"?>
<!-- Generator: Adobe Illustrator 15.1.0, SVG Export Plug-In . SVG Version: 6.00 Build 0)  -->
<!DOCTYPE svg PUBLIC "-//W3C//DTD SVG 1.1//EN" "http://www.w3.org/Graphics/SVG/1.1/DTD/svg11.dtd">
<svg version="1.1" id="Слой_1" xmlns="http://www.w3.org/2000/svg" xmlns:xlink="http://www.w3.org/1999/xlink" x="0px" y="0px"
	 width="70.561px" height="66px" viewBox="0 0 70.561 66" enable-background="new 0 0 70.561 66" xml:space="preserve">
<g>
	<path fill="#22BCB8" d="M35.183,2.188c-17.068,0-30.906,13.838-30.906,30.906C4.277,50.16,18.115,64,35.183,64
		s30.905-13.84,30.905-30.906C66.088,16.026,52.251,2.188,35.183,2.188z M35.183,60.137c-14.911,0-27.043-12.131-27.043-27.043
		c0-14.912,12.132-27.042,27.043-27.042c14.908,0,27.041,12.131,27.041,27.042C62.224,48.006,50.091,60.137,35.183,60.137z"/>
	<path fill="#22BCB8" d="M54.075,36.96c-4.884,4.771-11.542,7.724-18.893,7.724c-7.349,0-14.011-2.953-18.886-7.724h-0.43
		c5.666,7.056,9.56,11.587,19.316,11.587c9.756,0,13.65-4.531,19.316-11.587H54.075z"/>
	<ellipse fill="#22BCB8" cx="27.455" cy="23.435" rx="3.864" ry="5.795"/>
	<ellipse fill="#22BCB8" cx="42.908" cy="23.435" rx="3.863" ry="5.795"/>
</g>
</svg>
