<?xml version="1.0" encoding="utf-8"?>
<!-- Generator: Adobe Illustrator 15.1.0, SVG Export Plug-In . SVG Version: 6.00 Build 0)  -->
<!DOCTYPE svg PUBLIC "-//W3C//DTD SVG 1.1//EN" "http://www.w3.org/Graphics/SVG/1.1/DTD/svg11.dtd">
<svg version="1.1" id="Слой_1" xmlns="http://www.w3.org/2000/svg" xmlns:xlink="http://www.w3.org/1999/xlink" x="0px" y="0px"
	 width="70.561px" height="66px" viewBox="0 0 70.561 66" enable-background="new 0 0 70.561 66" xml:space="preserve">
<g>
	<rect x="10.114" y="40" fill="#22BCB8" width="23.125" height="23.125"/>
	<rect x="37.093" y="40" fill="#22BCB8" width="23.126" height="23.125"/>
	<path fill="#22BCB8" d="M40.948,20.729v-0.233c5.623-0.565,15.416-2.521,15.416-9.402c0-4.817-4.816-9.635-9.635-9.635
		c-4.357,0-8.703,3.967-9.493,15.417h-0.144h-3.854h-0.144C32.303,5.426,27.96,1.459,23.603,1.459c-4.817,0-9.636,4.818-9.636,9.635
		c0,6.881,9.8,8.837,15.417,9.402v0.233H6.26v15.417h26.979V20.729h3.854v15.417h26.979V20.729H40.948z M17.823,11.094
		c0-2.702,3.079-5.781,5.781-5.781c2.966,0,5.05,4.32,5.622,11.314C23.972,16.025,17.823,14.293,17.823,11.094z M46.73,5.313
		c2.702,0,5.781,3.079,5.781,5.781c0,3.178-6.15,4.916-11.404,5.524C41.686,9.633,43.764,5.313,46.73,5.313z"/>
</g>
</svg>
