<?xml version="1.0" encoding="utf-8"?>
<!-- Generator: Adobe Illustrator 15.1.0, SVG Export Plug-In . SVG Version: 6.00 Build 0)  -->
<!DOCTYPE svg PUBLIC "-//W3C//DTD SVG 1.1//EN" "http://www.w3.org/Graphics/SVG/1.1/DTD/svg11.dtd">
<svg version="1.1" id="Слой_1" xmlns="http://www.w3.org/2000/svg" xmlns:xlink="http://www.w3.org/1999/xlink" x="0px" y="0px"
	 width="70.561px" height="66px" viewBox="0 0 70.561 66" enable-background="new 0 0 70.561 66" xml:space="preserve">
<g>
	<path fill="#636262" d="M26.933,13.032c-13.065,0-23.656,10.592-23.656,23.656c0,13.063,10.591,23.656,23.656,23.656
		c13.064,0,23.655-10.593,23.655-23.656C50.588,23.624,39.997,13.032,26.933,13.032z M26.933,57.387
		c-11.413,0-20.699-9.285-20.699-20.699c0-11.414,9.286-20.699,20.699-20.699c11.411,0,20.697,9.285,20.697,20.699
		C47.63,48.102,38.344,57.387,26.933,57.387z"/>
	<path fill="#636262" d="M41.394,39.646c-3.738,3.652-8.835,5.913-14.461,5.913c-5.625,0-10.725-2.261-14.456-5.913h-0.329
		c4.337,5.402,7.317,8.869,14.785,8.869c7.467,0,10.448-3.467,14.785-8.869H41.394z"/>
	<ellipse fill="#636262" cx="21.018" cy="29.295" rx="2.958" ry="4.436"/>
	<ellipse fill="#636262" cx="32.846" cy="29.295" rx="2.957" ry="4.436"/>
</g>
<g>
	<path fill="#636262" d="M57.178,5.354c-6.061,0-10.973,4.911-10.973,10.968c0,6.06,4.912,10.971,10.973,10.971
		c6.054,0,10.967-4.911,10.967-10.971C68.145,10.266,63.232,5.354,57.178,5.354z M57.178,25.921c-5.297,0-9.603-4.305-9.603-9.599
		c0-5.292,4.306-9.598,9.603-9.598c5.288,0,9.596,4.306,9.596,9.598C66.774,21.617,62.466,25.921,57.178,25.921z"/>
	<path fill="#636262" d="M54.435,14.951c0.757,0,1.37-0.917,1.37-2.054c0-1.138-0.613-2.06-1.37-2.06
		c-0.758,0-1.372,0.922-1.372,2.06C53.063,14.034,53.677,14.951,54.435,14.951z"/>
	<path fill="#636262" d="M59.918,14.951c0.758,0,1.371-0.917,1.371-2.054c0-1.138-0.613-2.06-1.371-2.06
		c-0.757,0-1.372,0.922-1.372,2.06C58.546,14.034,59.161,14.951,59.918,14.951z"/>
	<path fill="#636262" d="M51.365,19.869c1.194,1.975,3.327,3.311,5.812,3.311c2.479,0,4.611-1.336,5.804-3.311
		c0.403-0.664,0.688-1.396,0.853-2.175H50.519C50.68,18.474,50.966,19.206,51.365,19.869z"/>
</g>
</svg>
