<?xml version="1.0" encoding="utf-8"?>
<!-- Generator: Adobe Illustrator 15.1.0, SVG Export Plug-In . SVG Version: 6.00 Build 0)  -->
<!DOCTYPE svg PUBLIC "-//W3C//DTD SVG 1.1//EN" "http://www.w3.org/Graphics/SVG/1.1/DTD/svg11.dtd">
<svg version="1.1" id="Слой_1" xmlns="http://www.w3.org/2000/svg" xmlns:xlink="http://www.w3.org/1999/xlink" x="0px" y="0px"
	 width="70.561px" height="66px" viewBox="0 0 70.561 66" enable-background="new 0 0 70.561 66" xml:space="preserve">
<g>
	<path fill="#636262" d="M39.956,24.952c-5.993,0-10.866,4.878-10.866,10.868c0,5.988,4.873,10.861,10.866,10.861
		c5.986,0,10.858-4.873,10.858-10.861C50.816,29.83,45.944,24.952,39.956,24.952z M37.086,41.674
		c-1.32-1.177-2.169-2.867-2.169-4.771c0-3.546,2.874-6.418,6.417-6.418c1.971,0,3.716,0.907,4.888,2.308
		C41.478,33.301,37.723,36.969,37.086,41.674z"/>
	<path fill="#636262" d="M60.463,13.873h-4.317V9.556H51.83v4.317H30.241c0-2.079-1.944-4.317-4.317-4.317h-8.635
		c-2.374,0-4.317,2.238-4.317,4.317H8.655c-2.374,0-4.316,1.944-4.316,4.317v34.539c0,2.373,1.942,4.316,4.316,4.316h51.81
		c2.369,0,4.316-1.943,4.316-4.316V18.19C64.781,15.817,62.832,13.873,60.463,13.873z M14.675,28.435
		c-1.735,0-3.143-1.408-3.143-3.145c0-1.733,1.407-3.141,3.143-3.141s3.143,1.408,3.143,3.141
		C17.818,27.027,16.41,28.435,14.675,28.435z M39.956,52.298c-9.087,0-16.479-7.396-16.479-16.478
		c0-9.084,7.393-16.475,16.479-16.475c9.081,0,16.478,7.391,16.478,16.475C56.434,44.902,49.037,52.298,39.956,52.298z"/>
</g>
</svg>
